<svg width="158" height="32" viewBox="0 0 158 32" fill="none" xmlns="http://www.w3.org/2000/svg">
<path d="M113 12C113 8.68629 115.686 6 119 6H152C155.314 6 158 8.68629 158 12V20C158 23.3137 155.314 26 152 26H119C115.686 26 113 23.3137 113 20V12Z" fill="#FFDC62"/>
<path d="M120.02 20H123.452C124.916 20 125.996 18.944 125.996 17.528C125.996 16.484 125.42 15.656 124.316 15.452C124.988 15.2 125.384 14.576 125.384 13.772C125.384 12.536 124.352 11.636 123.044 11.636H120.02V20ZM121.52 15.008V12.992H122.852C123.476 12.992 123.92 13.424 123.92 13.976C123.92 14.576 123.476 15.008 122.84 15.008H121.52ZM121.52 18.644V16.268H123.188C123.968 16.268 124.508 16.772 124.508 17.444C124.508 18.128 123.956 18.644 123.2 18.644H121.52Z" fill="#4257B2"/>
<path d="M128.579 20H133.991V18.644H130.079V16.34H133.667V14.984H130.079V12.992H133.907V11.636H128.579V20Z" fill="#4257B2"/>
<path d="M138.288 20H139.788V12.992H142.056V11.636H136.02V12.992H138.288V20Z" fill="#4257B2"/>
<path d="M142.68 20H144.264L145.008 18.38H148.608L149.352 20H150.948L146.82 11.228L142.68 20ZM145.572 17.084L146.808 14.36L148.044 17.084H145.572Z" fill="#4257B2"/>
<circle cx="16" cy="16" r="16" fill="#4257B2"/>
<path fill-rule="evenodd" clip-rule="evenodd" d="M24.1779 16.0055C24.1779 11.5183 20.6274 8.0083 15.9222 8.0083C11.3726 8.0083 7.6665 11.3845 7.6665 16.0055C7.6665 20.4927 11.2391 23.9805 15.9222 23.9805C17.3869 23.9805 18.7638 23.6233 19.8655 22.8564L20.6269 23.7361H24.3332L22.1361 21.2704C23.4011 19.8932 24.1779 18.0715 24.1779 16.0055ZM17.6311 20.5373C17.0983 20.7594 16.5436 20.8927 15.9222 20.8927C13.0811 20.8927 11.0844 18.76 11.0844 16.0054C11.0844 13.2952 13.0811 11.1182 15.9222 11.1182C18.7631 11.1182 20.7823 13.3177 20.7823 16.0054C20.7823 17.205 20.4939 18.138 19.8725 18.9155L18.1637 16.9384H14.4575L17.6311 20.5373Z" fill="white"/>
<path d="M40.7798 17.96C40.7798 20.94 42.9798 23.22 45.8198 23.22C47.5198 23.22 48.6998 22.48 49.0398 21.54V23H51.4398V9.06002H49.0398V14.38C48.6998 13.44 47.5198 12.7 45.8198 12.7C42.9798 12.7 40.7798 14.98 40.7798 17.96ZM43.1598 17.96C43.1598 16.2 44.4398 14.88 46.1398 14.88C47.8798 14.88 49.2198 16.2 49.2198 17.96C49.2198 19.72 47.8798 21.04 46.1398 21.04C44.4398 21.04 43.1598 19.72 43.1598 17.96Z" fill="#303545"/>
<path d="M52.9165 18.04C52.9165 21.2 55.0965 23.24 58.2565 23.24C59.7765 23.24 61.1965 22.82 62.4965 21.44L61.0565 20.04C60.2965 20.8 59.5565 21.2 58.3365 21.2C56.5565 21.2 55.3765 20.16 55.2965 18.56H63.1365C63.1765 18.16 63.1765 17.72 63.1765 17.72C63.1765 14.9 61.1965 12.64 58.1965 12.64C55.1765 12.64 52.9165 14.72 52.9165 17.96V18.04ZM55.3565 16.88C55.4565 15.66 56.6965 14.68 58.1965 14.68C59.5965 14.68 60.7365 15.68 60.7365 16.88H55.3565Z" fill="#303545"/>
<path d="M63.7757 21.22C64.3957 22.42 65.8357 23.26 67.9357 23.26C70.8157 23.26 72.0757 21.8 72.0757 20.06C72.0757 18.6 71.2357 17.72 69.3757 17.06C67.6757 16.44 66.8357 16.34 66.8357 15.58C66.8357 15.04 67.2957 14.68 68.0557 14.68C69.1557 14.68 69.8357 15.06 70.2557 15.56L71.5957 14.14C70.8957 13.26 69.7757 12.62 68.0957 12.62C66.1757 12.62 64.5357 13.7 64.5357 15.64C64.5357 17.18 65.5357 17.94 67.0157 18.48C68.5757 19.04 69.7757 19.24 69.7757 20.08C69.7757 20.6 69.3557 21.18 67.9757 21.18C66.6757 21.18 65.7357 20.6 65.3157 19.92L63.7757 21.22Z" fill="#303545"/>
<path d="M74.5721 11.74C75.3321 11.74 75.9921 11.12 75.9921 10.32C75.9921 9.52002 75.3321 8.90002 74.5721 8.90002C73.7921 8.90002 73.1321 9.52002 73.1321 10.32C73.1321 11.12 73.7921 11.74 74.5721 11.74ZM73.3721 23H75.7721V12.92H73.3721V23Z" fill="#303545"/>
<path d="M79.6559 17.92C79.6559 16.2 80.9359 14.88 82.6359 14.88C84.3759 14.88 85.7159 16.2 85.7159 17.92C85.7159 19.66 84.3759 20.96 82.6359 20.96C80.9359 20.96 79.6559 19.66 79.6559 17.92ZM77.2759 17.92C77.2759 20.86 79.4759 23.08 82.3159 23.08C83.9959 23.08 85.1559 22.4 85.5959 21.6V22.1C85.5959 23 85.4759 24.04 84.6359 24.66C84.0959 25.06 83.2959 25.26 82.4159 25.26C81.0559 25.26 79.9759 24.84 78.9559 24.16L77.7959 25.94C79.1759 26.92 80.7959 27.4 82.6759 27.4C84.0559 27.4 85.3359 26.98 86.2359 26.28C87.7159 25.12 87.9359 23.44 87.9359 21.32V12.92H85.5359V14.38C85.1959 13.44 84.0159 12.7 82.3159 12.7C79.4759 12.7 77.2759 14.98 77.2759 17.92Z" fill="#303545"/>
<path d="M89.8331 23H92.2131V17.2C92.2131 15.82 93.1931 14.86 94.5531 14.86C95.9131 14.86 96.6931 15.74 96.6931 17.1V23H99.0931V16.76C99.0931 14.28 97.6931 12.72 95.2731 12.72C93.8131 12.72 92.6731 13.4 92.2131 14.36V12.92H89.8331V23Z" fill="#303545"/>
</svg>
