<svg width="100" height="32" viewBox="0 0 100 32" fill="none" xmlns="http://www.w3.org/2000/svg">
<circle cx="16" cy="16" r="16" fill="#4257b2"/>
<path fill-rule="evenodd" clip-rule="evenodd" d="M24.178 16.0055C24.178 11.5183 20.6275 8.0083 15.9223 8.0083C11.3727 8.0083 7.66663 11.3845 7.66663 16.0055C7.66663 20.4927 11.2392 23.9805 15.9223 23.9805C17.387 23.9805 18.7639 23.6233 19.8656 22.8564L20.627 23.7361H24.3333L22.1362 21.2704C23.4012 19.8932 24.178 18.0715 24.178 16.0055ZM17.6312 20.5373C17.0984 20.7594 16.5437 20.8927 15.9223 20.8927C13.0812 20.8927 11.0845 18.76 11.0845 16.0054C11.0845 13.2952 13.0812 11.1182 15.9223 11.1182C18.7632 11.1182 20.7824 13.3177 20.7824 16.0054C20.7824 17.205 20.494 18.138 19.8726 18.9155L18.1638 16.9384H14.4577L17.6312 20.5373Z" fill="white"/>
<path d="M40.78 17.96C40.78 20.94 42.98 23.22 45.82 23.22C47.52 23.22 48.7 22.48 49.04 21.54V23H51.44V9.06002H49.04V14.38C48.7 13.44 47.52 12.7 45.82 12.7C42.98 12.7 40.78 14.98 40.78 17.96ZM43.16 17.96C43.16 16.2 44.44 14.88 46.14 14.88C47.88 14.88 49.22 16.2 49.22 17.96C49.22 19.72 47.88 21.04 46.14 21.04C44.44 21.04 43.16 19.72 43.16 17.96Z" fill="#303545"/>
<path d="M52.9167 18.04C52.9167 21.2 55.0967 23.24 58.2567 23.24C59.7767 23.24 61.1967 22.82 62.4967 21.44L61.0567 20.04C60.2967 20.8 59.5567 21.2 58.3367 21.2C56.5567 21.2 55.3767 20.16 55.2967 18.56H63.1367C63.1767 18.16 63.1767 17.72 63.1767 17.72C63.1767 14.9 61.1967 12.64 58.1967 12.64C55.1767 12.64 52.9167 14.72 52.9167 17.96V18.04ZM55.3567 16.88C55.4567 15.66 56.6967 14.68 58.1967 14.68C59.5967 14.68 60.7367 15.68 60.7367 16.88H55.3567Z" fill="#303545"/>
<path d="M63.776 21.22C64.396 22.42 65.836 23.26 67.936 23.26C70.816 23.26 72.076 21.8 72.076 20.06C72.076 18.6 71.236 17.72 69.376 17.06C67.676 16.44 66.836 16.34 66.836 15.58C66.836 15.04 67.296 14.68 68.056 14.68C69.156 14.68 69.836 15.06 70.256 15.56L71.596 14.14C70.896 13.26 69.776 12.62 68.096 12.62C66.176 12.62 64.536 13.7 64.536 15.64C64.536 17.18 65.536 17.94 67.016 18.48C68.576 19.04 69.776 19.24 69.776 20.08C69.776 20.6 69.356 21.18 67.976 21.18C66.676 21.18 65.736 20.6 65.316 19.92L63.776 21.22Z" fill="#303545"/>
<path d="M74.5724 11.74C75.3324 11.74 75.9924 11.12 75.9924 10.32C75.9924 9.52002 75.3324 8.90002 74.5724 8.90002C73.7924 8.90002 73.1324 9.52002 73.1324 10.32C73.1324 11.12 73.7924 11.74 74.5724 11.74ZM73.3724 23H75.7724V12.92H73.3724V23Z" fill="#303545"/>
<path d="M79.6561 17.92C79.6561 16.2 80.9361 14.88 82.6361 14.88C84.3761 14.88 85.7161 16.2 85.7161 17.92C85.7161 19.66 84.3761 20.96 82.6361 20.96C80.9361 20.96 79.6561 19.66 79.6561 17.92ZM77.2761 17.92C77.2761 20.86 79.4761 23.08 82.3161 23.08C83.9961 23.08 85.1561 22.4 85.5961 21.6V22.1C85.5961 23 85.4761 24.04 84.6361 24.66C84.0961 25.06 83.2961 25.26 82.4161 25.26C81.0561 25.26 79.9761 24.84 78.9561 24.16L77.7961 25.94C79.1761 26.92 80.7961 27.4 82.6761 27.4C84.0561 27.4 85.3361 26.98 86.2361 26.28C87.7161 25.12 87.9361 23.44 87.9361 21.32V12.92H85.5361V14.38C85.1961 13.44 84.0161 12.7 82.3161 12.7C79.4761 12.7 77.2761 14.98 77.2761 17.92Z" fill="#303545"/>
<path d="M89.8333 23H92.2133V17.2C92.2133 15.82 93.1933 14.86 94.5533 14.86C95.9133 14.86 96.6933 15.74 96.6933 17.1V23H99.0933V16.76C99.0933 14.28 97.6933 12.72 95.2733 12.72C93.8133 12.72 92.6733 13.4 92.2133 14.36V12.92H89.8333V23Z" fill="#303545"/>
</svg>
