<svg width="24" height="24" viewBox="0 0 24 24" fill="none" xmlns="http://www.w3.org/2000/svg">
<path fill-rule="evenodd" clip-rule="evenodd" d="M21.8137 12.0066C21.8137 6.62197 17.5531 2.41 11.9068 2.41C6.44734 2.41 2 6.46139 2 12.0066C2 17.3913 6.28714 21.5767 11.9068 21.5767C13.6644 21.5767 15.3168 21.148 16.6387 20.2277L17.5524 21.2833H22L19.3635 18.3246C20.8815 16.6718 21.8137 14.4858 21.8137 12.0066ZM13.9575 17.4447C13.3181 17.7113 12.6525 17.8713 11.9068 17.8713C8.49754 17.8713 6.10146 15.312 6.10146 12.0066C6.10146 8.75425 8.49754 6.1419 11.9068 6.1419C15.3159 6.1419 17.7389 8.78122 17.7389 12.0066C17.7389 13.446 17.3929 14.5656 16.6472 15.4987L14.5966 13.1262H10.1492L13.9575 17.4447Z" fill="#4070D0"/>
</svg>
