<svg width="256" height="256" viewBox="0 0 256 256" fill="none" xmlns="http://www.w3.org/2000/svg">
<path fill-rule="evenodd" clip-rule="evenodd" d="M232.679 128.07C232.679 70.6343 187.233 25.7067 127.006 25.7067C68.7717 25.7067 21.3334 68.9215 21.3334 128.07C21.3334 185.507 67.0629 230.151 127.006 230.151C145.754 230.151 163.379 225.579 177.48 215.762L187.226 227.022H234.667L206.544 195.462C222.736 177.833 232.679 154.515 232.679 128.07ZM148.88 186.077C142.06 188.921 134.96 190.627 127.006 190.627C90.6405 190.627 65.0823 163.328 65.0823 128.07C65.0823 93.3786 90.6405 65.5135 127.006 65.5135C163.37 65.5135 189.216 93.6664 189.216 128.07C189.216 143.424 185.524 155.366 177.57 165.319L155.697 140.012H108.259L148.88 186.077Z" fill="#4257B2"/>
</svg>
